<?xml version="1.0" encoding="UTF-8" standalone="no"?>
<!DOCTYPE svg PUBLIC "-//W3C//DTD SVG 1.1//EN" "http://www.w3.org/Graphics/SVG/1.1/DTD/svg11.dtd">
<svg width="100%" height="100%" viewBox="0 0 398 138" version="1.1" xmlns="http://www.w3.org/2000/svg" xmlns:xlink="http://www.w3.org/1999/xlink" xml:space="preserve" xmlns:serif="http://www.serif.com/" style="fill-rule:evenodd;clip-rule:evenodd;stroke-linejoin:round;stroke-miterlimit:2;">
    <g transform="matrix(1,0,0,1,-101.13,-231.29)">
        <path d="M153.48,283.79C148.23,278.84 142.23,277.19 135.18,277.19C126.48,277.19 121.68,279.89 121.68,284.54C121.68,289.34 126.03,292.04 135.48,292.64C149.43,293.54 167.13,296.69 167.13,316.34C167.13,329.39 156.48,340.64 135.33,340.64C123.63,340.64 111.93,338.69 101.13,327.44L110.13,314.39C115.38,320.24 127.38,324.59 135.63,324.74C142.53,324.89 148.98,321.29 148.98,315.89C148.98,310.79 144.78,308.69 134.28,308.09C120.33,307.04 103.68,301.94 103.68,285.14C103.68,268.04 121.38,262.04 134.88,262.04C146.43,262.04 155.13,264.29 163.68,271.79L153.48,283.79Z" style="fill:rgb(249,249,249);fill-rule:nonzero;"/>
        <path d="M252.33,301.19C252.33,322.49 237.78,339.74 213.78,339.74C189.78,339.74 175.38,322.49 175.38,301.19C175.38,280.04 190.08,262.64 213.63,262.64C237.18,262.64 252.33,280.04 252.33,301.19ZM193.68,301.19C193.68,312.44 200.43,322.94 213.78,322.94C227.13,322.94 233.88,312.44 233.88,301.19C233.88,290.09 226.08,279.29 213.78,279.29C200.58,279.29 193.68,290.09 193.68,301.19Z" style="fill:rgb(249,249,249);fill-rule:nonzero;"/>
        <rect x="264.93" y="233.24" width="18.15" height="104.85" style="fill:rgb(249,249,249);fill-rule:nonzero;"/>
        <path d="M336.33,247.04C330.03,247.04 323.43,251.24 323.43,260.24L323.43,265.19L330.78,265.19L330.78,281.24L323.43,281.24L323.43,338.09L305.13,338.09L305.13,281.24L297.93,281.24L297.93,265.19L305.13,265.19L305.13,260.24C305.13,240.44 321.48,231.29 336.33,231.29L336.33,247.04Z" style="fill:rgb(249,249,249);fill-rule:nonzero;"/>
        <path d="M421.38,264.14L376.23,368.99L356.13,368.99L369.93,336.89L340.38,264.14L361.68,264.14L372.93,296.09L379.98,316.94L387.63,296.54L401.13,264.14L421.38,264.14Z" style="fill:rgb(249,249,249);fill-rule:nonzero;"/>
        <path d="M452.02,270.56L443.81,270.56L443.81,266.12L465.1,266.12L465.1,270.56L456.9,270.56L456.9,291.99L452.02,291.99L452.02,270.56Z" style="fill:rgb(249,249,249);fill-rule:nonzero;"/>
        <path d="M497.34,291.99L477.98,291.99L477.98,266.12L497.34,266.12L497.34,270.85L482.82,270.85L482.82,276.8L496.83,276.8L496.83,281.35L482.82,281.35L482.82,287.19L497.34,287.19L497.34,291.99Z" style="fill:rgb(249,249,249);fill-rule:nonzero;"/>
        <path d="M466.22,333.08C463.56,335.7 460.12,336.92 456.39,336.92C446.78,336.92 442.72,330.31 442.68,323.58C442.64,316.82 447.04,309.94 456.39,309.94C459.9,309.94 463.23,311.27 465.89,313.9L462.64,317.04C460.94,315.38 458.65,314.6 456.4,314.6C450.15,314.6 447.46,319.26 447.49,323.58C447.53,327.87 450,332.34 456.4,332.34C458.65,332.34 461.2,331.42 462.9,329.72L466.22,333.08Z" style="fill:rgb(249,249,249);fill-rule:nonzero;"/>
        <path d="M494.03,336.37L494.03,325.91L481.32,325.91L481.32,336.37L476.44,336.37L476.44,310.5L481.32,310.5L481.32,321.4L494.03,321.4L494.03,310.5L498.87,310.5L498.87,336.37L494.03,336.37Z" style="fill:rgb(249,249,249);fill-rule:nonzero;"/>
    </g>
</svg>
